<svg width="42" height="42" viewBox="0 0 42 42" fill="none" xmlns="http://www.w3.org/2000/svg">
<path fill-rule="evenodd" clip-rule="evenodd" d="M21 42C32.598 42 42 32.598 42 21C42 9.40202 32.598 0 21 0C9.40202 0 0 9.40202 0 21C0 32.598 9.40202 42 21 42ZM30.0428 10.5006L16.5483 10.1151C15.7203 10.0914 15.0298 10.7435 15.0061 11.5716C14.9825 12.3997 15.6346 13.0902 16.4627 13.1138L26.3373 13.396L10.9701 27.9095L13.0299 30.0905L28.3972 15.577L28.1151 25.4517C28.0914 26.2797 28.7435 26.9702 29.5716 26.9939C30.3997 27.0175 31.0902 26.3654 31.1138 25.5373L31.4994 12.0428C31.523 11.2148 30.8709 10.5243 30.0428 10.5006Z" fill="#FABC1C"/>
</svg>
