<svg width="176" height="28" viewBox="0 0 176 28" fill="none" xmlns="http://www.w3.org/2000/svg">
<path d="M10.9919 22.39C8.95188 22.39 7.12188 21.93 5.50188 21.01C3.90188 20.07 2.64188 18.78 1.72188 17.14C0.821875 15.48 0.371875 13.6 0.371875 11.5C0.371875 9.4 0.821875 7.53 1.72188 5.89C2.64188 4.23 3.91188 2.94 5.53188 2.02C7.15188 1.08 8.98188 0.609998 11.0219 0.609998C12.9019 0.609998 14.5819 0.999999 16.0619 1.78C17.5419 2.56 18.7119 3.61 19.5719 4.93C20.4319 6.23 20.9319 7.66 21.0719 9.22H17.9219C17.8019 8.22 17.4419 7.29 16.8419 6.43C16.2419 5.57 15.4319 4.89 14.4119 4.39C13.4119 3.87 12.2719 3.61 10.9919 3.61C9.53188 3.61 8.24188 3.94 7.12188 4.6C6.02188 5.24 5.17188 6.16 4.57188 7.36C3.97188 8.54 3.67188 9.92 3.67188 11.5C3.67188 13.08 3.97188 14.47 4.57188 15.67C5.17188 16.85 6.02188 17.77 7.12188 18.43C8.24188 19.07 9.53188 19.39 10.9919 19.39C12.2919 19.39 13.4419 19.14 14.4419 18.64C15.4419 18.12 16.2319 17.42 16.8119 16.54C17.4119 15.66 17.7819 14.7 17.9219 13.66H21.0719C20.9319 15.24 20.4219 16.7 19.5419 18.04C18.6619 19.36 17.4819 20.42 16.0019 21.22C14.5419 22 12.8719 22.39 10.9919 22.39ZM30.5713 22.39C29.1313 22.39 27.8513 22.06 26.7313 21.4C25.6113 20.72 24.7313 19.78 24.0913 18.58C23.4713 17.38 23.1613 16.02 23.1613 14.5C23.1613 13 23.4713 11.65 24.0913 10.45C24.7313 9.25 25.6113 8.31 26.7313 7.63C27.8513 6.95 29.1313 6.61 30.5713 6.61C31.6513 6.61 32.6713 6.83 33.6313 7.27C34.6113 7.71 35.3613 8.39 35.8813 9.31H36.0913V7H39.0913V22H36.0913V19.69H35.8813C35.3613 20.61 34.6213 21.29 33.6613 21.73C32.7013 22.17 31.6713 22.39 30.5713 22.39ZM31.2013 19.54C32.6813 19.54 33.8613 19.09 34.7413 18.19C35.6413 17.27 36.0913 16.04 36.0913 14.5C36.0913 12.96 35.6413 11.74 34.7413 10.84C33.8613 9.92 32.6813 9.46 31.2013 9.46C29.7213 9.46 28.5313 9.92 27.6313 10.84C26.7513 11.74 26.3113 12.96 26.3113 14.5C26.3113 16.04 26.7513 17.27 27.6313 18.19C28.5313 19.09 29.7213 19.54 31.2013 19.54ZM51.8971 22H48.7471V3.94H41.4871V0.999999H59.1571V3.94H51.8971V22ZM70.8454 22.39C68.8054 22.39 66.9754 21.93 65.3554 21.01C63.7554 20.07 62.4954 18.78 61.5754 17.14C60.6754 15.48 60.2254 13.6 60.2254 11.5C60.2254 9.4 60.6754 7.53 61.5754 5.89C62.4954 4.23 63.7654 2.94 65.3854 2.02C67.0054 1.08 68.8354 0.609998 70.8754 0.609998C72.7554 0.609998 74.4354 0.999999 75.9154 1.78C77.3954 2.56 78.5654 3.61 79.4254 4.93C80.2854 6.23 80.7854 7.66 80.9254 9.22H77.7754C77.6554 8.22 77.2954 7.29 76.6954 6.43C76.0954 5.57 75.2854 4.89 74.2654 4.39C73.2654 3.87 72.1254 3.61 70.8454 3.61C69.3854 3.61 68.0954 3.94 66.9754 4.6C65.8754 5.24 65.0254 6.16 64.4254 7.36C63.8254 8.54 63.5254 9.92 63.5254 11.5C63.5254 13.08 63.8254 14.47 64.4254 15.67C65.0254 16.85 65.8754 17.77 66.9754 18.43C68.0954 19.07 69.3854 19.39 70.8454 19.39C72.1454 19.39 73.2954 19.14 74.2954 18.64C75.2954 18.12 76.0854 17.42 76.6654 16.54C77.2654 15.66 77.6354 14.7 77.7754 13.66H80.9254C80.7854 15.24 80.2754 16.7 79.3954 18.04C78.5154 19.36 77.3354 20.42 75.8554 21.22C74.3954 22 72.7254 22.39 70.8454 22.39ZM90.4248 22.39C88.9848 22.39 87.7048 22.06 86.5848 21.4C85.4648 20.72 84.5848 19.78 83.9448 18.58C83.3248 17.38 83.0148 16.02 83.0148 14.5C83.0148 13 83.3248 11.65 83.9448 10.45C84.5848 9.25 85.4648 8.31 86.5848 7.63C87.7048 6.95 88.9848 6.61 90.4248 6.61C91.5048 6.61 92.5248 6.83 93.4848 7.27C94.4648 7.71 95.2148 8.39 95.7348 9.31H95.9448V7H98.9448V22H95.9448V19.69H95.7348C95.2148 20.61 94.4748 21.29 93.5148 21.73C92.5548 22.17 91.5248 22.39 90.4248 22.39ZM91.0548 19.54C92.5348 19.54 93.7148 19.09 94.5948 18.19C95.4948 17.27 95.9448 16.04 95.9448 14.5C95.9448 12.96 95.4948 11.74 94.5948 10.84C93.7148 9.92 92.5348 9.46 91.0548 9.46C89.5748 9.46 88.3848 9.92 87.4848 10.84C86.6048 11.74 86.1648 12.96 86.1648 14.5C86.1648 16.04 86.6048 17.27 87.4848 18.19C88.3848 19.09 89.5748 19.54 91.0548 19.54ZM112.501 0.999999C114.061 0.999999 115.411 1.27 116.551 1.81C117.691 2.35 118.551 3.11 119.131 4.09C119.731 5.05 120.031 6.16 120.031 7.42C120.031 8.68 119.731 9.8 119.131 10.78C118.551 11.76 117.691 12.52 116.551 13.06C115.411 13.6 114.061 13.87 112.501 13.87H106.291V22H103.141V0.999999H112.501ZM112.501 10.93C113.861 10.93 114.901 10.63 115.621 10.03C116.361 9.41 116.731 8.54 116.731 7.42C116.731 6.3 116.361 5.44 115.621 4.84C114.901 4.24 113.861 3.94 112.501 3.94H106.291V10.93H112.501ZM128.511 22.39C127.071 22.39 125.791 22.06 124.671 21.4C123.551 20.72 122.671 19.78 122.031 18.58C121.411 17.38 121.101 16.02 121.101 14.5C121.101 13 121.411 11.65 122.031 10.45C122.671 9.25 123.551 8.31 124.671 7.63C125.791 6.95 127.071 6.61 128.511 6.61C129.591 6.61 130.611 6.83 131.571 7.27C132.551 7.71 133.301 8.39 133.821 9.31H134.031V7H137.031V22H134.031V19.69H133.821C133.301 20.61 132.561 21.29 131.601 21.73C130.641 22.17 129.611 22.39 128.511 22.39ZM129.141 19.54C130.621 19.54 131.801 19.09 132.681 18.19C133.581 17.27 134.031 16.04 134.031 14.5C134.031 12.96 133.581 11.74 132.681 10.84C131.801 9.92 130.621 9.46 129.141 9.46C127.661 9.46 126.471 9.92 125.571 10.84C124.691 11.74 124.251 12.96 124.251 14.5C124.251 16.04 124.691 17.27 125.571 18.19C126.471 19.09 127.661 19.54 129.141 19.54ZM140.927 28V7H143.927V9.31H144.137C144.657 8.39 145.397 7.71 146.357 7.27C147.317 6.83 148.347 6.61 149.447 6.61C150.887 6.61 152.167 6.95 153.287 7.63C154.407 8.29 155.277 9.22 155.897 10.42C156.537 11.62 156.857 12.98 156.857 14.5C156.857 16 156.537 17.35 155.897 18.55C155.277 19.75 154.407 20.69 153.287 21.37C152.167 22.05 150.887 22.39 149.447 22.39C148.367 22.39 147.337 22.17 146.357 21.73C145.397 21.29 144.657 20.61 144.137 19.69H143.927V28H140.927ZM148.817 19.54C150.297 19.54 151.477 19.09 152.357 18.19C153.257 17.27 153.707 16.04 153.707 14.5C153.707 12.96 153.257 11.74 152.357 10.84C151.477 9.92 150.297 9.46 148.817 9.46C147.337 9.46 146.147 9.92 145.247 10.84C144.367 11.74 143.927 12.96 143.927 14.5C143.927 16.04 144.367 17.27 145.247 18.19C146.147 19.09 147.337 19.54 148.817 19.54ZM159.852 28V7H162.852V9.31H163.062C163.582 8.39 164.322 7.71 165.282 7.27C166.242 6.83 167.272 6.61 168.372 6.61C169.812 6.61 171.092 6.95 172.212 7.63C173.332 8.29 174.202 9.22 174.822 10.42C175.462 11.62 175.782 12.98 175.782 14.5C175.782 16 175.462 17.35 174.822 18.55C174.202 19.75 173.332 20.69 172.212 21.37C171.092 22.05 169.812 22.39 168.372 22.39C167.292 22.39 166.262 22.17 165.282 21.73C164.322 21.29 163.582 20.61 163.062 19.69H162.852V28H159.852ZM167.742 19.54C169.222 19.54 170.402 19.09 171.282 18.19C172.182 17.27 172.632 16.04 172.632 14.5C172.632 12.96 172.182 11.74 171.282 10.84C170.402 9.92 169.222 9.46 167.742 9.46C166.262 9.46 165.072 9.92 164.172 10.84C163.292 11.74 162.852 12.96 162.852 14.5C162.852 16.04 163.292 17.27 164.172 18.19C165.072 19.09 166.262 19.54 167.742 19.54Z" fill="black"/>
</svg>
